<svg width="30" height="30" viewBox="0 0 30 30" fill="none" xmlns="http://www.w3.org/2000/svg">
<path d="M22 0H8C3.58172 0 0 3.58172 0 8V22C0 26.4183 3.58172 30 8 30H22C26.4183 30 30 26.4183 30 22V8C30 3.58172 26.4183 0 22 0Z" fill="#093687"/>
<path d="M12.5713 13.2518L16.3713 9.21484H12.3053L9.16726 18.8558H6.56227C6.50198 18.8556 6.44259 18.8412 6.38888 18.8139C6.33517 18.7865 6.28863 18.7469 6.25303 18.6983C6.21742 18.6496 6.19373 18.5933 6.18387 18.5338C6.17401 18.4743 6.17826 18.4134 6.19627 18.3558L9.16527 9.21884H5.69427L2.75426 18.2658C2.66041 18.5551 2.63632 18.8625 2.68396 19.1628C2.73159 19.4632 2.8496 19.748 3.02835 19.9941C3.2071 20.2401 3.44152 20.4404 3.71245 20.5785C3.98339 20.7166 4.28315 20.7887 4.58727 20.7888H12.0113L14.6433 12.6888L12.5713 13.2518Z" fill="white"/>
<path d="M25.4133 9.21484H17.4393L18.6123 13.2518L16.9123 12.6858L14.2813 20.7858H17.7523L19.0053 16.9278H22.7603C23.5744 16.9277 24.3677 16.6698 25.0264 16.1913C25.6851 15.7128 26.1754 15.0381 26.4273 14.2638L27.2453 11.7358C27.3389 11.4468 27.3629 11.1396 27.3152 10.8395C27.2676 10.5394 27.1496 10.2548 26.971 10.009C26.7923 9.76321 26.5581 9.56312 26.2874 9.42509C26.0167 9.28707 25.7171 9.21503 25.4133 9.21484ZM23.8053 11.6458L23.1493 13.6668C23.0234 14.0542 22.7782 14.3918 22.4488 14.6312C22.1193 14.8707 21.7225 14.9997 21.3153 14.9998H19.6283L20.8823 11.1428H23.4383C23.4991 11.1425 23.559 11.1567 23.6133 11.1841C23.6676 11.2115 23.7145 11.2514 23.7504 11.3005C23.7862 11.3496 23.8099 11.4065 23.8194 11.4666C23.829 11.5266 23.8241 11.588 23.8053 11.6458Z" fill="white"/>
</svg>
